<svg width="30" height="29" viewBox="0 0 30 29" fill="none" xmlns="http://www.w3.org/2000/svg">
<path d="M16.2095 15.8605L27.7738 15.8602C28.5262 15.8604 29.1344 15.2523 29.1342 14.4999C29.1342 13.7477 28.5261 13.1395 27.7739 13.1395L16.2094 13.1397L16.2097 1.57538C16.2095 0.822982 15.6016 0.215047 14.8494 0.215054C14.097 0.214886 13.4888 0.823011 13.489 1.57541L13.4887 13.1397L1.92443 13.14C1.17204 13.1398 0.563911 13.7479 0.564079 14.5003C0.563899 14.8754 0.7161 15.2161 0.962375 15.4624C1.20865 15.7086 1.54917 15.8607 1.9244 15.8607L13.4887 15.8604L13.4886 27.4248C13.4886 27.8001 13.6406 28.1406 13.8869 28.3869C14.1331 28.6331 14.4737 28.7852 14.8489 28.7852C15.6013 28.7853 16.2094 28.1772 16.2093 27.4248L16.2095 15.8605Z" fill="#FFAD45"/>
</svg>
