<svg width="1280" height="34" viewBox="0 0 1280 34" fill="none" xmlns="http://www.w3.org/2000/svg">
<rect y="14" width="1280" height="7" rx="3.5" fill="white"/>
<rect y="14" width="163" height="7" rx="3.5" fill="url(#paint0_linear_6364_7)"/>
<circle cx="157" cy="17" r="17" fill="#FFA147"/>
<circle cx="479" cy="17" r="17" fill="white"/>
<circle cx="801" cy="17" r="17" fill="white"/>
<circle cx="1123" cy="17" r="17" fill="white"/>
<path d="M157.729 22C157.612 22 157.516 21.9627 157.441 21.888C157.377 21.8133 157.345 21.7227 157.345 21.616V13.328L154.913 15.2C154.817 15.264 154.721 15.2907 154.625 15.28C154.529 15.2587 154.444 15.2 154.369 15.104L153.697 14.24C153.633 14.144 153.606 14.0427 153.617 13.936C153.638 13.8293 153.697 13.744 153.793 13.68L157.377 10.912C157.441 10.8587 157.505 10.8267 157.569 10.816C157.633 10.8053 157.702 10.8 157.777 10.8H159.185C159.292 10.8 159.382 10.8373 159.457 10.912C159.532 10.9867 159.569 11.0773 159.569 11.184V21.616C159.569 21.7227 159.532 21.8133 159.457 21.888C159.382 21.9627 159.292 22 159.185 22H157.729Z" fill="white"/>
<path d="M475.151 23C475.044 23 474.954 22.9627 474.879 22.888C474.804 22.8133 474.767 22.7227 474.767 22.616V21.8C474.767 21.704 474.788 21.592 474.831 21.464C474.884 21.3253 474.996 21.1867 475.167 21.048L477.695 18.536C478.399 17.9813 478.964 17.512 479.391 17.128C479.828 16.7333 480.143 16.376 480.335 16.056C480.538 15.7253 480.639 15.4 480.639 15.08C480.639 14.6 480.506 14.2107 480.239 13.912C479.983 13.6133 479.572 13.464 479.007 13.464C478.634 13.464 478.319 13.544 478.063 13.704C477.807 13.8533 477.604 14.056 477.455 14.312C477.316 14.568 477.22 14.8507 477.167 15.16C477.146 15.2987 477.087 15.3947 476.991 15.448C476.895 15.5013 476.799 15.528 476.703 15.528H475.279C475.183 15.528 475.103 15.496 475.039 15.432C474.975 15.368 474.943 15.2933 474.943 15.208C474.954 14.7493 475.05 14.3067 475.231 13.88C475.412 13.4427 475.674 13.0587 476.015 12.728C476.367 12.3867 476.794 12.1147 477.295 11.912C477.796 11.7093 478.362 11.608 478.991 11.608C479.876 11.608 480.607 11.7573 481.183 12.056C481.77 12.3547 482.207 12.76 482.495 13.272C482.794 13.784 482.943 14.36 482.943 15C482.943 15.5013 482.847 15.9653 482.655 16.392C482.463 16.808 482.186 17.2133 481.823 17.608C481.46 17.992 481.023 18.3867 480.511 18.792L478.239 21.096H482.799C482.916 21.096 483.007 21.1333 483.071 21.208C483.146 21.272 483.183 21.3627 483.183 21.48V22.616C483.183 22.7227 483.146 22.8133 483.071 22.888C483.007 22.9627 482.916 23 482.799 23H475.151Z" fill="#D6D3D3"/>
<path d="M801.437 23.16C800.69 23.16 800.045 23.0693 799.501 22.888C798.957 22.7067 798.504 22.472 798.141 22.184C797.789 21.8853 797.522 21.5653 797.341 21.224C797.16 20.872 797.064 20.5253 797.053 20.184C797.053 20.088 797.085 20.0133 797.149 19.96C797.224 19.896 797.309 19.864 797.405 19.864H798.845C798.952 19.864 799.042 19.8853 799.117 19.928C799.192 19.9707 799.256 20.056 799.309 20.184C799.405 20.472 799.56 20.7013 799.773 20.872C799.997 21.0427 800.253 21.1653 800.541 21.24C800.829 21.304 801.133 21.336 801.453 21.336C802.093 21.336 802.6 21.1867 802.973 20.888C803.357 20.5787 803.549 20.1413 803.549 19.576C803.549 19.0107 803.373 18.6053 803.021 18.36C802.669 18.104 802.178 17.976 801.549 17.976H799.901C799.784 17.976 799.688 17.944 799.613 17.88C799.538 17.8053 799.501 17.7093 799.501 17.592V16.92C799.501 16.8133 799.522 16.7227 799.565 16.648C799.618 16.5627 799.672 16.4933 799.725 16.44L802.589 13.64H798.013C797.896 13.64 797.8 13.6027 797.725 13.528C797.661 13.4533 797.629 13.3627 797.629 13.256V12.2C797.629 12.0827 797.661 11.9867 797.725 11.912C797.8 11.8373 797.896 11.8 798.013 11.8H804.877C804.994 11.8 805.09 11.8373 805.165 11.912C805.24 11.9867 805.277 12.0827 805.277 12.2V13.16C805.277 13.256 805.256 13.3413 805.213 13.416C805.17 13.4907 805.122 13.5547 805.069 13.608L802.301 16.456L802.493 16.472C803.144 16.5253 803.72 16.6747 804.221 16.92C804.733 17.1547 805.128 17.5013 805.405 17.96C805.693 18.4187 805.837 18.9947 805.837 19.688C805.837 20.4133 805.645 21.0373 805.261 21.56C804.888 22.072 804.37 22.4667 803.709 22.744C803.048 23.0213 802.29 23.16 801.437 23.16Z" fill="#D6D3D3"/>
<path d="M1124.6 23C1124.49 23 1124.4 22.9627 1124.33 22.888C1124.25 22.8133 1124.22 22.7227 1124.22 22.616V20.568H1119.15C1119.03 20.568 1118.93 20.5307 1118.86 20.456C1118.79 20.3813 1118.76 20.2907 1118.76 20.184V19.096C1118.76 19.032 1118.77 18.9573 1118.79 18.872C1118.83 18.776 1118.87 18.6907 1118.94 18.616L1123.66 12.072C1123.8 11.8907 1123.99 11.8 1124.25 11.8H1125.99C1126.1 11.8 1126.19 11.8373 1126.27 11.912C1126.34 11.9867 1126.38 12.0773 1126.38 12.184V18.68H1127.8C1127.93 18.68 1128.03 18.7173 1128.09 18.792C1128.16 18.856 1128.2 18.9467 1128.2 19.064V20.184C1128.2 20.2907 1128.16 20.3813 1128.09 20.456C1128.01 20.5307 1127.92 20.568 1127.82 20.568H1126.38V22.616C1126.38 22.7227 1126.34 22.8133 1126.27 22.888C1126.19 22.9627 1126.1 23 1125.99 23H1124.6ZM1120.99 18.744H1124.27V14.12L1120.99 18.744Z" fill="#D6D3D3"/>
<defs>
<linearGradient id="paint0_linear_6364_7" x1="60.6198" y1="20.16" x2="66.3708" y2="0.261445" gradientUnits="userSpaceOnUse">
<stop stop-color="#FFC83E"/>
<stop offset="1" stop-color="#FF9F47"/>
</linearGradient>
</defs>
</svg>
