<svg width="13" height="12" viewBox="0 0 13 12" fill="none" xmlns="http://www.w3.org/2000/svg">
<path d="M12.7033 4.27174C12.5572 4.11781 12.3576 4.0177 12.1401 3.98927V3.98885L8.74275 3.54829L7.39834 0.532645C7.20204 0.0912375 6.66172 -0.1172 6.19154 0.0670818C5.96738 0.154941 5.78916 0.322224 5.69559 0.532645L4.35119 3.54829L0.953873 3.98885C0.447713 4.05499 0.0945002 4.49383 0.164956 4.96899C0.195235 5.17318 0.301881 5.3606 0.465849 5.49775L3.02549 7.64046L2.49956 11.0028C2.44258 11.3442 2.60963 11.6844 2.9232 11.8654C3.23236 12.051 3.63003 12.0441 3.93161 11.8478L6.54694 10.1782L9.16227 11.8496C9.58428 12.1184 10.1586 12.0153 10.445 11.6191C10.5752 11.4391 10.6285 11.2197 10.5944 11.0045L10.0685 7.64086L12.6281 5.49815C13.0096 5.17901 13.0433 4.6299 12.7033 4.27174ZM9.27686 7.15661C9.16235 7.25266 9.10695 7.39629 9.1294 7.53889L9.6772 11.1386L6.80488 9.30534C6.65003 9.20656 6.44661 9.20656 6.29176 9.30534L3.40253 11.1275L3.96449 7.53718C3.98632 7.39516 3.93095 7.25231 3.81702 7.15664L1.07799 4.83907L4.73369 4.36552C4.89376 4.34481 5.0302 4.2462 5.0925 4.10626L6.5524 0.857065C6.55406 0.858973 6.55529 0.861158 6.55606 0.863493L8.00091 4.10455C8.0632 4.24449 8.19967 4.3431 8.35971 4.36381L12.02 4.85835L9.27686 7.15661Z" fill="#C7CED6"/>
</svg>
