<svg width="11" height="6" viewBox="0 0 11 6" fill="none" xmlns="http://www.w3.org/2000/svg">
<path d="M10.8492 2.65338L8.19358 0.146325C8.09578 0.0487615 7.97366 0 7.82697 0C7.68028 0 7.55815 0.0488155 7.46036 0.146325L7.1508 0.435198C7.0503 0.530199 7.00006 0.645675 7.00006 0.781749C7.00006 0.915246 7.05029 1.0321 7.1508 1.1322L9.13034 3.00001L7.15071 4.87167C7.05025 4.96667 7 5.08215 7 5.21824C7 5.35172 7.05023 5.46861 7.15071 5.56867L7.4603 5.85751C7.56078 5.95251 7.68303 6 7.82691 6C7.97085 6 8.09307 5.95251 8.19352 5.85751L10.8492 3.35045C10.9497 3.25032 11 3.1335 11 3C11 2.86393 10.9497 2.74838 10.8492 2.65338Z" fill="white"/>
<path d="M0.150814 3.34662L2.80642 5.85367C2.90422 5.95124 3.02634 6 3.17303 6C3.31972 6 3.44185 5.95118 3.53964 5.85367L3.8492 5.5648C3.9497 5.4698 3.99994 5.35432 3.99994 5.21825C3.99994 5.08475 3.94971 4.9679 3.8492 4.8678L1.86966 2.99999L3.84929 1.12833C3.94975 1.03333 4 0.91785 4 0.781762C4 0.648279 3.94977 0.531385 3.84929 0.431327L3.5397 0.142494C3.43922 0.0474934 3.31697 -5.97124e-08 3.17309 -7.22907e-08C3.02915 -8.4874e-08 2.90693 0.0474934 2.80648 0.142494L0.150814 2.64955C0.0502909 2.74968 2.73939e-07 2.8665 2.62268e-07 3C-1.40547e-05 3.13607 0.0502908 3.25162 0.150814 3.34662Z" fill="white"/>
</svg>
