<svg width="162" height="31" viewBox="0 0 162 31" fill="none" xmlns="http://www.w3.org/2000/svg">
<path d="M1.63 24C1.388 24 1.201 23.934 1.069 23.802C0.937 23.648 0.871 23.461 0.871 23.241V1.692C0.871 1.45 0.937 1.263 1.069 1.131C1.201 0.976999 1.388 0.899998 1.63 0.899998H15.094C15.336 0.899998 15.523 0.976999 15.655 1.131C15.787 1.263 15.853 1.45 15.853 1.692V3.012C15.853 3.254 15.787 3.441 15.655 3.573C15.523 3.705 15.336 3.771 15.094 3.771H4.072V11.46H14.434C14.676 11.46 14.863 11.537 14.995 11.691C15.127 11.823 15.193 12.01 15.193 12.252V13.572C15.193 13.792 15.127 13.979 14.995 14.133C14.863 14.265 14.676 14.331 14.434 14.331H4.072V23.241C4.072 23.461 3.995 23.648 3.841 23.802C3.709 23.934 3.522 24 3.28 24H1.63ZM20.3114 24C20.0914 24 19.9044 23.934 19.7504 23.802C19.6184 23.648 19.5524 23.461 19.5524 23.241V7.599C19.5524 7.379 19.6184 7.203 19.7504 7.071C19.9044 6.917 20.0914 6.84 20.3114 6.84H21.8954C22.1154 6.84 22.2914 6.917 22.4234 7.071C22.5554 7.203 22.6214 7.379 22.6214 7.599V23.241C22.6214 23.461 22.5554 23.648 22.4234 23.802C22.2914 23.934 22.1154 24 21.8954 24H20.3114ZM20.0474 3.639C19.8274 3.639 19.6404 3.573 19.4864 3.441C19.3544 3.287 19.2884 3.1 19.2884 2.88V1.098C19.2884 0.877999 19.3544 0.701998 19.4864 0.569999C19.6404 0.415999 19.8274 0.339 20.0474 0.339H22.1264C22.3464 0.339 22.5224 0.415999 22.6544 0.569999C22.8084 0.701998 22.8854 0.877999 22.8854 1.098V2.88C22.8854 3.1 22.8084 3.287 22.6544 3.441C22.5224 3.573 22.3464 3.639 22.1264 3.639H20.0474ZM28.6258 24C28.4058 24 28.2188 23.934 28.0648 23.802C27.9328 23.648 27.8668 23.461 27.8668 23.241V7.632C27.8668 7.412 27.9328 7.225 28.0648 7.071C28.2188 6.917 28.4058 6.84 28.6258 6.84H30.1438C30.3638 6.84 30.5508 6.917 30.7048 7.071C30.8588 7.225 30.9358 7.412 30.9358 7.632V9.084C31.3758 8.336 31.9808 7.775 32.7508 7.401C33.5208 7.027 34.4448 6.84 35.5228 6.84H36.8428C37.0628 6.84 37.2388 6.917 37.3708 7.071C37.5028 7.203 37.5688 7.379 37.5688 7.599V8.952C37.5688 9.172 37.5028 9.348 37.3708 9.48C37.2388 9.612 37.0628 9.678 36.8428 9.678H34.8628C33.6748 9.678 32.7398 10.03 32.0578 10.734C31.3758 11.416 31.0348 12.351 31.0348 13.539V23.241C31.0348 23.461 30.9578 23.648 30.8038 23.802C30.6498 23.934 30.4628 24 30.2428 24H28.6258ZM46.9117 24.33C44.6457 24.33 42.8417 23.637 41.4997 22.251C40.1577 20.843 39.4207 18.929 39.2887 16.509C39.2667 16.223 39.2557 15.86 39.2557 15.42C39.2557 14.958 39.2667 14.584 39.2887 14.298C39.3767 12.736 39.7397 11.372 40.3777 10.206C41.0157 9.018 41.8847 8.105 42.9847 7.467C44.1067 6.829 45.4157 6.51 46.9117 6.51C48.5837 6.51 49.9807 6.862 51.1027 7.566C52.2467 8.27 53.1157 9.271 53.7097 10.569C54.3037 11.867 54.6007 13.385 54.6007 15.123V15.684C54.6007 15.926 54.5237 16.113 54.3697 16.245C54.2377 16.377 54.0617 16.443 53.8417 16.443H42.4237C42.4237 16.465 42.4237 16.509 42.4237 16.575C42.4237 16.641 42.4237 16.696 42.4237 16.74C42.4677 17.642 42.6657 18.489 43.0177 19.281C43.3697 20.051 43.8757 20.678 44.5357 21.162C45.1957 21.646 45.9877 21.888 46.9117 21.888C47.7037 21.888 48.3637 21.767 48.8917 21.525C49.4197 21.283 49.8487 21.019 50.1787 20.733C50.5087 20.425 50.7287 20.194 50.8387 20.04C51.0367 19.754 51.1907 19.589 51.3007 19.545C51.4107 19.479 51.5867 19.446 51.8287 19.446H53.4127C53.6327 19.446 53.8087 19.512 53.9407 19.644C54.0947 19.754 54.1607 19.919 54.1387 20.139C54.1167 20.469 53.9407 20.876 53.6107 21.36C53.2807 21.822 52.8077 22.284 52.1917 22.746C51.5757 23.208 50.8277 23.593 49.9477 23.901C49.0677 24.187 48.0557 24.33 46.9117 24.33ZM42.4237 14.166H51.4657V14.067C51.4657 13.077 51.2787 12.197 50.9047 11.427C50.5527 10.657 50.0357 10.052 49.3537 9.612C48.6717 9.15 47.8577 8.919 46.9117 8.919C45.9657 8.919 45.1517 9.15 44.4697 9.612C43.8097 10.052 43.3037 10.657 42.9517 11.427C42.5997 12.197 42.4237 13.077 42.4237 14.067V14.166ZM59.3715 24C59.1515 24 58.9535 23.923 58.7775 23.769C58.6235 23.615 58.5465 23.417 58.5465 23.175V1.725C58.5465 1.483 58.6235 1.285 58.7775 1.131C58.9535 0.976999 59.1515 0.899998 59.3715 0.899998H62.4405C62.7705 0.899998 63.0125 0.987999 63.1665 1.164C63.3425 1.34 63.4635 1.472 63.5295 1.56L69.6015 12.747L75.7395 1.56C75.7835 1.472 75.8825 1.34 76.0365 1.164C76.2125 0.987999 76.4655 0.899998 76.7955 0.899998H79.8645C80.1065 0.899998 80.3045 0.976999 80.4585 1.131C80.6125 1.285 80.6895 1.483 80.6895 1.725V23.175C80.6895 23.417 80.6125 23.615 80.4585 23.769C80.3045 23.923 80.1065 24 79.8645 24H76.4985C76.2785 24 76.0915 23.923 75.9375 23.769C75.7835 23.615 75.7065 23.417 75.7065 23.175V9.843L71.5155 17.697C71.4055 17.895 71.2625 18.071 71.0865 18.225C70.9105 18.379 70.6795 18.456 70.3935 18.456H68.8425C68.5565 18.456 68.3255 18.379 68.1495 18.225C67.9735 18.071 67.8305 17.895 67.7205 17.697L63.5295 9.843V23.175C63.5295 23.417 63.4525 23.615 63.2985 23.769C63.1445 23.923 62.9575 24 62.7375 24H59.3715ZM93.0756 24.33C91.2496 24.33 89.7206 24.033 88.4886 23.439C87.2566 22.823 86.3106 21.954 85.6506 20.832C85.0126 19.71 84.6606 18.401 84.5946 16.905C84.5726 16.465 84.5616 15.97 84.5616 15.42C84.5616 14.848 84.5726 14.353 84.5946 13.935C84.6606 12.417 85.0346 11.108 85.7166 10.008C86.3986 8.886 87.3556 8.028 88.5876 7.434C89.8196 6.818 91.3156 6.51 93.0756 6.51C94.8136 6.51 96.2986 6.818 97.5306 7.434C98.7626 8.028 99.7196 8.886 100.402 10.008C101.084 11.108 101.458 12.417 101.524 13.935C101.568 14.353 101.59 14.848 101.59 15.42C101.59 15.97 101.568 16.465 101.524 16.905C101.458 18.401 101.095 19.71 100.435 20.832C99.7966 21.954 98.8616 22.823 97.6296 23.439C96.3976 24.033 94.8796 24.33 93.0756 24.33ZM93.0756 20.7C94.1536 20.7 94.9676 20.37 95.5176 19.71C96.0676 19.028 96.3646 18.038 96.4086 16.74C96.4306 16.41 96.4416 15.97 96.4416 15.42C96.4416 14.87 96.4306 14.43 96.4086 14.1C96.3646 12.824 96.0676 11.845 95.5176 11.163C94.9676 10.481 94.1536 10.14 93.0756 10.14C91.9976 10.14 91.1726 10.481 90.6006 11.163C90.0506 11.845 89.7536 12.824 89.7096 14.1C89.6876 14.43 89.6766 14.87 89.6766 15.42C89.6766 15.97 89.6876 16.41 89.7096 16.74C89.7536 18.038 90.0506 19.028 90.6006 19.71C91.1726 20.37 91.9976 20.7 93.0756 20.7ZM105.833 24C105.613 24 105.426 23.923 105.272 23.769C105.118 23.615 105.041 23.417 105.041 23.175V7.665C105.041 7.423 105.118 7.225 105.272 7.071C105.426 6.917 105.613 6.84 105.833 6.84H109.067C109.309 6.84 109.507 6.917 109.661 7.071C109.815 7.225 109.892 7.423 109.892 7.665V8.952C110.464 8.248 111.201 7.665 112.103 7.203C113.005 6.741 114.105 6.51 115.403 6.51C116.701 6.51 117.834 6.807 118.802 7.401C119.792 7.973 120.562 8.82 121.112 9.942C121.684 11.042 121.97 12.384 121.97 13.968V23.175C121.97 23.417 121.882 23.615 121.706 23.769C121.552 23.923 121.365 24 121.145 24H117.647C117.405 24 117.207 23.923 117.053 23.769C116.899 23.615 116.822 23.417 116.822 23.175V14.166C116.822 13 116.536 12.098 115.964 11.46C115.414 10.8 114.6 10.47 113.522 10.47C112.488 10.47 111.663 10.8 111.047 11.46C110.431 12.098 110.123 13 110.123 14.166V23.175C110.123 23.417 110.046 23.615 109.892 23.769C109.738 23.923 109.551 24 109.331 24H105.833ZM133.58 24.33C131.05 24.33 129.037 23.626 127.541 22.218C126.067 20.81 125.286 18.764 125.198 16.08C125.198 15.904 125.198 15.673 125.198 15.387C125.198 15.079 125.198 14.837 125.198 14.661C125.286 12.967 125.671 11.515 126.353 10.305C127.035 9.073 127.992 8.138 129.224 7.5C130.456 6.84 131.897 6.51 133.547 6.51C135.395 6.51 136.935 6.895 138.167 7.665C139.421 8.413 140.356 9.447 140.972 10.767C141.61 12.065 141.929 13.561 141.929 15.255V16.014C141.929 16.234 141.841 16.421 141.665 16.575C141.511 16.729 141.324 16.806 141.104 16.806H130.313C130.313 16.828 130.313 16.872 130.313 16.938C130.313 16.982 130.313 17.026 130.313 17.07C130.335 17.774 130.467 18.423 130.709 19.017C130.973 19.589 131.336 20.051 131.798 20.403C132.282 20.755 132.854 20.931 133.514 20.931C134.064 20.931 134.515 20.854 134.867 20.7C135.219 20.546 135.505 20.359 135.725 20.139C135.967 19.919 136.143 19.732 136.253 19.578C136.451 19.358 136.605 19.226 136.715 19.182C136.847 19.116 137.045 19.083 137.309 19.083H140.741C140.961 19.083 141.137 19.149 141.269 19.281C141.423 19.391 141.489 19.556 141.467 19.776C141.445 20.128 141.258 20.568 140.906 21.096C140.576 21.602 140.081 22.108 139.421 22.614C138.761 23.098 137.936 23.505 136.946 23.835C135.978 24.165 134.856 24.33 133.58 24.33ZM130.313 13.803H136.781V13.737C136.781 12.945 136.649 12.263 136.385 11.691C136.143 11.097 135.78 10.635 135.296 10.305C134.812 9.975 134.229 9.81 133.547 9.81C132.865 9.81 132.282 9.975 131.798 10.305C131.314 10.635 130.94 11.097 130.676 11.691C130.434 12.263 130.313 12.945 130.313 13.737V13.803ZM147.653 30.27C147.477 30.27 147.312 30.204 147.158 30.072C147.026 29.94 146.96 29.775 146.96 29.577C146.96 29.533 146.971 29.467 146.993 29.379C147.015 29.313 147.048 29.225 147.092 29.115L149.666 22.944L143.33 7.995C143.264 7.819 143.231 7.676 143.231 7.566C143.253 7.368 143.33 7.203 143.462 7.071C143.594 6.917 143.759 6.84 143.957 6.84H147.158C147.444 6.84 147.653 6.917 147.785 7.071C147.917 7.203 148.016 7.346 148.082 7.5L152.174 17.73L156.365 7.5C156.453 7.324 156.563 7.17 156.695 7.038C156.827 6.906 157.036 6.84 157.322 6.84H160.457C160.655 6.84 160.82 6.917 160.952 7.071C161.106 7.203 161.183 7.357 161.183 7.533C161.183 7.643 161.139 7.797 161.051 7.995L151.712 29.61C151.646 29.786 151.536 29.94 151.382 30.072C151.25 30.204 151.041 30.27 150.755 30.27H147.653Z" fill="white"/>
</svg>
