<svg width="15" height="9" viewBox="0 0 15 9" fill="none" xmlns="http://www.w3.org/2000/svg">
<path d="M8.36655 8.44546L14.6342 2.61882C14.8781 2.40424 15 2.13629 15 1.81444C15 1.49259 14.878 1.22464 14.6342 1.01006L13.912 0.330866C13.6745 0.110372 13.3858 0.00012507 13.0456 0.000125055C12.7119 0.000125041 12.4198 0.110341 12.1695 0.330865L7.49997 4.67416L2.82082 0.330677C2.58332 0.110246 2.29462 -5.5537e-07 1.95441 -5.70241e-07C1.6207 -5.84828e-07 1.32847 0.110215 1.07832 0.330677L0.356236 1.00994C0.118734 1.2304 8.88167e-07 1.49863 8.74368e-07 1.81431C8.60564e-07 2.13012 0.118734 2.39829 0.356236 2.61869L6.62388 8.44546C6.87419 8.66602 7.16626 8.77636 7.5 8.77636C7.84018 8.77639 8.12904 8.66602 8.36655 8.44546Z" fill="#031D69"/>
</svg>
