<svg width="15" height="9" viewBox="0 0 15 9" fill="none" xmlns="http://www.w3.org/2000/svg">
<path d="M6.63345 0.330906L0.365813 6.15755C0.121904 6.37213 2.5475e-08 6.64008 2.1637e-08 6.96193C1.77989e-08 7.28378 0.122039 7.55173 0.365813 7.7663L1.088 8.4455C1.3255 8.666 1.61419 8.77624 1.95437 8.77624C2.28812 8.77624 2.58025 8.66603 2.83049 8.4455L7.50003 4.10221L12.1792 8.44569C12.4167 8.66612 12.7054 8.77637 13.0456 8.77637C13.3793 8.77637 13.6715 8.66615 13.9217 8.44569L14.6438 7.76643C14.8813 7.54597 15 7.27774 15 6.96205C15 6.64624 14.8813 6.37808 14.6438 6.15768L8.37612 0.330906C8.12581 0.11035 7.83374 7.72281e-06 7.5 7.71883e-06C7.15982 -2.37565e-05 6.87096 0.11035 6.63345 0.330906Z" fill="white"/>
</svg>
