<svg width="155" height="155" viewBox="0 0 155 155" fill="none" xmlns="http://www.w3.org/2000/svg">
<g filter="url(#filter0_bd_6357_2)">
<path d="M79.8322 40.3639H110.209L44.1886 106.385L44.1886 76.5L79.8322 40.3639Z" fill="#FF7B00"/>
</g>
<path d="M59.0128 83.78C58.9469 83.8461 58.8678 83.8792 58.7754 83.8794C58.683 83.8796 58.6037 83.8468 58.5376 83.7809L52.0804 77.349C52.0076 77.2766 51.9712 77.1941 51.971 77.1017C51.9708 77.0093 52.0036 76.9301 52.0695 76.864L54.9347 73.9875C55.4682 73.4518 55.9856 73.0977 56.4868 72.9252C56.9815 72.746 57.45 72.7187 57.8924 72.8432C58.3414 72.9611 58.7544 73.2078 59.1313 73.5832C59.3826 73.8335 59.558 74.1005 59.6576 74.3841C59.7571 74.6544 59.8005 74.915 59.7878 75.1659C59.7817 75.4101 59.7491 75.6279 59.6901 75.8194C60.066 75.6801 60.4916 75.6495 60.9669 75.7278C61.4423 75.8061 61.8717 76.0362 62.2552 76.4182C62.652 76.8134 62.9168 77.2551 63.0498 77.7432C63.1828 78.2313 63.164 78.7395 62.9934 79.2678C62.8162 79.7896 62.4708 80.3083 61.957 80.8241L59.0128 83.78ZM59.0976 81.592L60.7475 79.9355C61.1032 79.5785 61.2774 79.2118 61.27 78.8357C61.2561 78.4529 61.1102 78.1232 60.8325 77.8466C60.5416 77.5568 60.2047 77.4122 59.8219 77.413C59.4457 77.4071 59.0831 77.5794 58.734 77.9299L57.084 79.5864L59.0976 81.592ZM56.0524 78.5588L57.6036 77.0016C57.9527 76.6511 58.1302 76.3076 58.1362 75.971C58.1421 75.6212 58.0095 75.3112 57.7383 75.0412C57.4606 74.7646 57.1568 74.6398 56.8269 74.6668C56.4969 74.6807 56.1574 74.8628 55.8083 75.2133L54.2571 76.7706L56.0524 78.5588ZM65.0372 77.7318C64.9845 77.7847 64.9153 77.8145 64.8295 77.8213C64.7503 77.8215 64.6809 77.7919 64.6214 77.7326C64.595 77.7063 64.5718 77.67 64.5519 77.6239L60.5352 68.8608C60.4889 68.7751 60.4689 68.6827 60.4753 68.5837C60.4817 68.4715 60.5343 68.3658 60.6331 68.2666L61.71 67.1855C61.8088 67.0863 61.911 67.0366 62.0166 67.0364C62.1156 67.0296 62.2113 67.0459 62.3038 67.0853L71.0826 71.0674C71.1222 71.0937 71.1553 71.1201 71.1817 71.1464C71.2412 71.2057 71.2711 71.2749 71.2712 71.3541C71.2714 71.4333 71.2451 71.4994 71.1924 71.5523L70.3329 72.4152C70.2406 72.5078 70.1516 72.5575 70.0659 72.5643C69.9801 72.5578 69.9107 72.5415 69.8579 72.5152L68.1834 71.776L65.249 74.7219L65.9948 76.3935C66.0213 76.4462 66.0346 76.5188 66.0348 76.6112C66.035 76.6904 65.989 76.7763 65.8967 76.8688L65.0372 77.7318ZM64.4542 73.2386L66.6969 70.987L62.5057 69.0648L64.4542 73.2386ZM74.716 68.2132C74.1034 68.8282 73.5004 69.2551 72.9069 69.4938C72.3133 69.7194 71.7624 69.7964 71.2541 69.7248C70.7458 69.64 70.323 69.4428 69.9858 69.1333C69.9263 69.074 69.8964 69.0048 69.8963 68.9256C69.8961 68.8464 69.9257 68.777 69.985 68.7175L70.8643 67.8347C70.9499 67.7488 71.0323 67.7057 71.1115 67.7056C71.1907 67.6922 71.2732 67.6953 71.359 67.715C71.5242 67.8004 71.7256 67.8495 71.9632 67.8623C72.1942 67.8684 72.4449 67.8151 72.7152 67.7024C72.9922 67.5831 73.2789 67.3746 73.5753 67.077C74.0495 66.6009 74.3225 66.1681 74.3944 65.7786C74.4728 65.3825 74.3764 65.0494 74.1053 64.7793C73.9136 64.5883 73.6989 64.4996 73.4613 64.5133C73.2172 64.5204 72.9171 64.6101 72.561 64.7823C72.2049 64.9414 71.7599 65.1832 71.226 65.5076C70.613 65.885 70.0558 66.16 69.5546 66.3326C69.0533 66.492 68.5881 66.5292 68.159 66.4442C67.7364 66.3527 67.3268 66.1093 66.93 65.7141C66.5465 65.3321 66.308 64.8903 66.2146 64.389C66.1278 63.881 66.1895 63.3496 66.3996 62.7948C66.6163 62.2334 66.9914 61.6849 67.5249 61.1492C67.953 60.7194 68.3913 60.3985 68.8396 60.1864C69.2814 59.9677 69.7068 59.8448 70.116 59.8176C70.5185 59.7838 70.8848 59.8194 71.215 59.9243C71.5452 60.0161 71.816 60.1607 72.0276 60.3583C72.0805 60.411 72.1104 60.4802 72.1171 60.566C72.1239 60.6386 72.0943 60.708 72.0284 60.7741L71.1096 61.6966C71.0569 61.7495 70.991 61.7892 70.9119 61.8157C70.8327 61.8423 70.7403 61.8359 70.6346 61.7965C70.3901 61.632 70.0864 61.5864 69.7236 61.6597C69.3608 61.733 69.0081 61.9416 68.6656 62.2854C68.3099 62.6425 68.0895 62.996 68.0044 63.346C67.9193 63.6959 68.0156 64.0092 68.2933 64.2859C68.4785 64.4703 68.6866 64.5722 68.9176 64.5915C69.1486 64.5977 69.429 64.5278 69.7587 64.382C70.0949 64.2295 70.5136 64.0076 71.0146 63.7162C71.7001 63.2793 72.3033 62.9646 72.8243 62.7722C73.3453 62.5798 73.8171 62.5294 74.2397 62.621C74.6556 62.7059 75.0587 62.9427 75.4488 63.3313C75.8852 63.7661 76.1403 64.2572 76.214 64.8049C76.2876 65.3393 76.1963 65.9004 75.9401 66.4883C75.6839 67.0762 75.2758 67.6512 74.716 68.2132ZM78.7921 63.9227C78.7262 63.9888 78.6471 64.022 78.5547 64.0221C78.4623 64.0223 78.383 63.9895 78.3169 63.9236L71.8497 57.4819C71.7836 57.416 71.7505 57.3369 71.7503 57.2445C71.7501 57.1521 71.7829 57.0728 71.8488 57.0067L72.7775 56.0743C72.85 56.0016 72.9291 55.9684 73.0149 55.9748C73.1073 55.9747 73.1866 56.0075 73.2527 56.0734L79.7199 62.5151C79.786 62.581 79.8191 62.6601 79.8193 62.7525C79.8261 62.8383 79.7932 62.9176 79.7208 62.9903L78.7921 63.9227ZM84.2742 58.6173C83.6616 59.2323 83.0354 59.6493 82.3957 59.8684C81.7559 60.0742 81.1257 60.092 80.505 59.9216C79.8777 59.7446 79.2698 59.3895 78.6814 58.856C78.4037 58.5926 78.1094 58.3061 77.7987 57.9965C77.4879 57.6869 77.1936 57.3872 76.9158 57.0974C76.3867 56.5177 76.0324 55.9145 75.853 55.2879C75.6802 54.6547 75.6987 54.021 75.9087 53.3871C76.1186 52.7399 76.5265 52.1121 77.1325 51.5038C77.5804 51.0541 78.0417 50.71 78.5164 50.4715C78.9911 50.233 79.4594 50.0934 79.9213 50.0529C80.3766 50.0058 80.8123 50.0512 81.2283 50.189C81.6444 50.3267 82.0177 50.5537 82.3483 50.8698C82.4144 50.9225 82.4442 50.9917 82.4378 51.0775C82.438 51.1567 82.4084 51.2261 82.3491 51.2856L81.4105 52.2279C81.3381 52.3006 81.2623 52.3437 81.1831 52.357C81.0973 52.3638 81.0016 52.3343 80.8958 52.2685C80.354 51.9396 79.8753 51.825 79.4597 51.9249C79.0441 52.0247 78.6453 52.2663 78.2633 52.6499C77.822 53.0929 77.5953 53.5718 77.5831 54.0866C77.5643 54.5948 77.8293 55.1421 78.3783 55.7284C78.9007 56.2883 79.4562 56.8416 80.0446 57.3882C80.6331 57.9348 81.1847 58.201 81.6994 58.1868C82.2076 58.166 82.6823 57.9341 83.1236 57.4911C83.5056 57.1075 83.7457 56.7078 83.8439 56.2918C83.9355 55.8692 83.819 55.391 83.4946 54.8571C83.4218 54.745 83.3919 54.6494 83.4049 54.5702C83.418 54.4909 83.4607 54.415 83.5332 54.3422L84.4718 53.3999C84.5311 53.3404 84.6003 53.3106 84.6795 53.3104C84.7653 53.3036 84.8346 53.3332 84.8876 53.3991C85.205 53.7285 85.4334 54.1009 85.5728 54.5164C85.7122 54.9319 85.7626 55.3707 85.7239 55.8327C85.6786 56.2882 85.5376 56.7538 85.301 57.2294C85.0643 57.705 84.722 58.1677 84.2742 58.6173Z" fill="white"/>
<defs>
<filter id="filter0_bd_6357_2" x="0.188599" y="0.363892" width="154.021" height="154.021" filterUnits="userSpaceOnUse" color-interpolation-filters="sRGB">
<feFlood flood-opacity="0" result="BackgroundImageFix"/>
<feGaussianBlur in="BackgroundImage" stdDeviation="6"/>
<feComposite in2="SourceAlpha" operator="in" result="effect1_backgroundBlur_6357_2"/>
<feColorMatrix in="SourceAlpha" type="matrix" values="0 0 0 0 0 0 0 0 0 0 0 0 0 0 0 0 0 0 127 0" result="hardAlpha"/>
<feOffset dy="4"/>
<feGaussianBlur stdDeviation="22"/>
<feComposite in2="hardAlpha" operator="out"/>
<feColorMatrix type="matrix" values="0 0 0 0 0.32907 0 0 0 0 0.409287 0 0 0 0 0.483333 0 0 0 0.05 0"/>
<feBlend mode="normal" in2="effect1_backgroundBlur_6357_2" result="effect2_dropShadow_6357_2"/>
<feBlend mode="normal" in="SourceGraphic" in2="effect2_dropShadow_6357_2" result="shape"/>
</filter>
</defs>
</svg>
