<svg width="155" height="155" viewBox="0 0 155 155" fill="none" xmlns="http://www.w3.org/2000/svg">
<g filter="url(#filter0_bd_6357_4)">
<path d="M79.8322 40.3639H110.209L44.1886 106.385L44.1886 76.5L79.8322 40.3639Z" fill="#FA5914"/>
</g>
<path d="M63.0306 79.5172C62.9646 79.5832 62.8854 79.6162 62.793 79.6162C62.7006 79.6162 62.6214 79.5832 62.5554 79.5172L56.1108 73.0726C56.0382 73 56.0019 72.9175 56.0019 72.8251C56.0019 72.7327 56.0349 72.6535 56.1009 72.5875L58.754 69.9345C59.2688 69.4197 59.8 69.0534 60.3478 68.8356C60.889 68.6112 61.4301 68.5584 61.9713 68.6772C62.5059 68.7894 63.0174 69.0897 63.5057 69.5781C64.0007 70.0731 64.3043 70.5878 64.4165 71.1224C64.5221 71.6504 64.4627 72.1849 64.2383 72.7261C64.0139 73.2673 63.6443 73.7953 63.1296 74.31L61.6545 75.7851L63.971 78.1015C64.037 78.1675 64.07 78.2467 64.07 78.3391C64.0766 78.4249 64.0436 78.5041 63.971 78.5767L63.0306 79.5172ZM60.5359 74.706L61.9812 73.2607C62.364 72.8779 62.5686 72.4951 62.595 72.1123C62.6148 71.723 62.4465 71.3501 62.0901 70.9937C61.7601 70.6637 61.4004 70.4954 61.0111 70.4888C60.6151 70.4756 60.2125 70.6736 59.8033 71.0828L58.358 72.5281L60.5359 74.706ZM69.5561 72.9916C69.4901 73.0576 69.4109 73.0906 69.3185 73.0906C69.2261 73.0906 69.1469 73.0576 69.0809 72.9916L62.6364 66.5471C62.5638 66.4745 62.5275 66.392 62.5275 66.2996C62.5275 66.2072 62.5605 66.128 62.6265 66.062L65.1904 63.498C65.989 62.6994 66.804 62.254 67.6356 62.1616C68.4672 62.0692 69.236 62.3761 69.9422 63.0822C70.4306 63.5706 70.7144 64.0986 70.7935 64.6661C70.8793 65.2271 70.7935 65.7815 70.5362 66.3293L74.5059 67.4083C74.5653 67.4281 74.6115 67.4545 74.6444 67.4875C74.7038 67.5469 74.7302 67.6195 74.7236 67.7053C74.7236 67.7845 74.6972 67.8505 74.6445 67.9033L73.7436 68.8041C73.6314 68.9163 73.5159 68.9724 73.3971 68.9724C73.2783 68.9724 73.1727 68.9592 73.0803 68.9328L69.4571 67.8637L68.0811 69.2397L70.457 71.6156C70.523 71.6816 70.556 71.7608 70.556 71.8532C70.5626 71.939 70.5296 72.0182 70.457 72.0908L69.5561 72.9916ZM66.9624 68.1211L68.3583 66.7252C68.7609 66.3227 68.972 65.9333 68.9918 65.5571C69.005 65.1743 68.8466 64.8179 68.5167 64.488C68.1867 64.158 67.8303 63.9996 67.4475 64.0128C67.0647 64.0128 66.6688 64.2174 66.2596 64.6266L64.8637 66.0224L66.9624 68.1211ZM78.722 64.0237C78.1347 64.6111 77.5341 65.0202 76.9203 65.2512C76.3 65.4756 75.6697 65.5053 75.0295 65.3403C74.3828 65.1687 73.7459 64.7892 73.1189 64.2019C72.8285 63.9247 72.5448 63.6475 72.2676 63.3703C71.9904 63.0931 71.7099 62.806 71.4261 62.5091C70.8453 61.8887 70.4758 61.2551 70.3174 60.6084C70.159 59.9616 70.1887 59.3247 70.4065 58.6978C70.6308 58.0642 71.0268 57.4636 71.5944 56.8961C72.162 56.3285 72.7625 55.9325 73.3961 55.7081C74.0297 55.4837 74.6698 55.4507 75.3166 55.6091C75.9634 55.7675 76.5969 56.1371 77.2173 56.7179C77.5209 56.995 77.8113 57.2722 78.0885 57.5494C78.3657 57.8266 78.6395 58.1137 78.9101 58.4107C79.4975 59.0376 79.877 59.6745 80.0486 60.3213C80.2136 60.9614 80.1806 61.595 79.9496 62.222C79.7186 62.8357 79.3094 63.4363 78.722 64.0237ZM77.5836 62.8852C78.0126 62.4563 78.237 61.9811 78.2568 61.4597C78.27 60.9317 77.9994 60.3708 77.445 59.7768C77.1678 59.4732 76.9071 59.1993 76.6629 58.9551C76.4122 58.7044 76.1383 58.4437 75.8413 58.1731C75.4453 57.8035 75.0625 57.5659 74.6929 57.4603C74.3234 57.3415 73.9769 57.3382 73.6535 57.4504C73.3235 57.556 73.0166 57.7507 72.7328 58.0345C72.4557 58.3117 72.2643 58.6153 72.1587 58.9452C72.0465 59.2686 72.0465 59.6184 72.1587 59.9946C72.2709 60.3576 72.5118 60.7371 72.8813 61.133C73.1585 61.4234 73.4225 61.694 73.6733 61.9448C73.9175 62.189 74.1881 62.453 74.4851 62.7368C75.079 63.2911 75.64 63.5617 76.168 63.5485C76.6893 63.5287 77.1612 63.3076 77.5836 62.8852Z" fill="white"/>
<defs>
<filter id="filter0_bd_6357_4" x="0.188599" y="0.363892" width="154.021" height="154.021" filterUnits="userSpaceOnUse" color-interpolation-filters="sRGB">
<feFlood flood-opacity="0" result="BackgroundImageFix"/>
<feGaussianBlur in="BackgroundImage" stdDeviation="6"/>
<feComposite in2="SourceAlpha" operator="in" result="effect1_backgroundBlur_6357_4"/>
<feColorMatrix in="SourceAlpha" type="matrix" values="0 0 0 0 0 0 0 0 0 0 0 0 0 0 0 0 0 0 127 0" result="hardAlpha"/>
<feOffset dy="4"/>
<feGaussianBlur stdDeviation="22"/>
<feComposite in2="hardAlpha" operator="out"/>
<feColorMatrix type="matrix" values="0 0 0 0 0.32907 0 0 0 0 0.409287 0 0 0 0 0.483333 0 0 0 0.05 0"/>
<feBlend mode="normal" in2="effect1_backgroundBlur_6357_4" result="effect2_dropShadow_6357_4"/>
<feBlend mode="normal" in="SourceGraphic" in2="effect2_dropShadow_6357_4" result="shape"/>
</filter>
</defs>
</svg>
