<svg width="155" height="155" viewBox="0 0 155 155" fill="none" xmlns="http://www.w3.org/2000/svg">
<g filter="url(#filter0_bd_6460_2)">
<path d="M80 40.3639H110.377L44.3565 106.385L44.3565 76.5L80 40.3639Z" fill="#FFC83E"/>
</g>
<path d="M62.0306 80.2243C61.9646 80.2903 61.8854 80.3233 61.793 80.3233C61.7006 80.3233 61.6214 80.2903 61.5554 80.2243L55.1009 73.7699C55.0349 73.7039 55.0019 73.6247 55.0019 73.5323C55.0019 73.4399 55.0349 73.3607 55.1009 73.2947L56.0216 72.374C56.0876 72.308 56.1668 72.275 56.2592 72.275C56.3516 72.275 56.4307 72.308 56.4967 72.374L62.0108 77.888L65.1489 74.7499C65.2215 74.6773 65.304 74.641 65.3964 74.641C65.4888 74.641 65.5713 74.6773 65.6439 74.7499L66.3368 75.4429C66.4028 75.5089 66.4358 75.5881 66.4358 75.6805C66.4358 75.7729 66.3995 75.8553 66.3269 75.9279L62.0306 80.2243ZM67.773 74.4818C67.707 74.5478 67.6279 74.5808 67.5355 74.5808C67.4431 74.5808 67.3639 74.5478 67.2979 74.4818L60.8434 68.0274C60.7774 67.9614 60.7444 67.8822 60.7444 67.7898C60.7444 67.6974 60.7774 67.6182 60.8434 67.5522L61.7739 66.6216C61.8465 66.549 61.9257 66.516 62.0115 66.5226C62.1039 66.5226 62.1831 66.5556 62.2491 66.6216L68.7036 73.0761C68.7696 73.1421 68.8026 73.2213 68.8026 73.3137C68.8092 73.3995 68.7762 73.4787 68.7036 73.5513L67.773 74.4818ZM72.2558 69.9991C72.1898 70.0651 72.1106 70.0981 72.0182 70.0981C71.9258 70.0981 71.8466 70.0651 71.7806 69.9991L66.3062 64.5247L64.4748 66.3561C64.4088 66.4221 64.3296 66.4551 64.2372 66.4551C64.1448 66.4551 64.0656 66.4221 63.9996 66.3561L63.2671 65.6235C63.1945 65.5509 63.1582 65.4684 63.1582 65.376C63.1582 65.2836 63.1912 65.2044 63.2572 65.1384L68.3059 60.0897C68.3785 60.0171 68.461 59.9808 68.5534 59.9808C68.6458 59.9808 68.7283 60.0171 68.8009 60.0897L69.5335 60.8222C69.5994 60.8882 69.6324 60.9674 69.6324 61.0598C69.6324 61.1522 69.5961 61.2347 69.5236 61.3073L67.702 63.1288L73.1765 68.6032C73.2425 68.6692 73.2755 68.7484 73.2755 68.8408C73.2755 68.9332 73.2392 69.0157 73.1666 69.0883L72.2558 69.9991ZM76.7251 65.5298C76.6591 65.5958 76.5799 65.6288 76.4875 65.6288C76.3951 65.6288 76.3159 65.5958 76.25 65.5298L69.8054 59.0852C69.7328 59.0126 69.6965 58.9301 69.6965 58.8377C69.6965 58.7453 69.7295 58.6661 69.7955 58.6001L74.1513 54.2443C74.2239 54.1717 74.3063 54.1354 74.3987 54.1354C74.4911 54.1354 74.5736 54.1717 74.6462 54.2443L75.2996 54.8977C75.3656 54.9637 75.3986 55.0429 75.3986 55.1353C75.3986 55.2277 75.3623 55.3102 75.2897 55.3828L72.0328 58.6397L73.785 60.3919L76.8241 57.3528C76.8967 57.2802 76.9792 57.2439 77.0716 57.2439C77.1574 57.2373 77.2366 57.2703 77.3092 57.3429L77.923 57.9566C77.9956 58.0292 78.0319 58.1117 78.0319 58.2041C78.0253 58.2899 77.9857 58.3691 77.9131 58.4417L74.8739 61.4809L76.6855 63.2925L80.0217 59.9563C80.0943 59.8837 80.1768 59.8475 80.2691 59.8475C80.3615 59.8475 80.444 59.8837 80.5166 59.9563L81.17 60.6097C81.236 60.6757 81.269 60.7549 81.269 60.8473C81.269 60.9397 81.2327 61.0222 81.1601 61.0948L76.7251 65.5298Z" fill="white"/>
<defs>
<filter id="filter0_bd_6460_2" x="0.356445" y="0.363892" width="154.021" height="154.021" filterUnits="userSpaceOnUse" color-interpolation-filters="sRGB">
<feFlood flood-opacity="0" result="BackgroundImageFix"/>
<feGaussianBlur in="BackgroundImage" stdDeviation="6"/>
<feComposite in2="SourceAlpha" operator="in" result="effect1_backgroundBlur_6460_2"/>
<feColorMatrix in="SourceAlpha" type="matrix" values="0 0 0 0 0 0 0 0 0 0 0 0 0 0 0 0 0 0 127 0" result="hardAlpha"/>
<feOffset dy="4"/>
<feGaussianBlur stdDeviation="22"/>
<feComposite in2="hardAlpha" operator="out"/>
<feColorMatrix type="matrix" values="0 0 0 0 0.32907 0 0 0 0 0.409287 0 0 0 0 0.483333 0 0 0 0.05 0"/>
<feBlend mode="normal" in2="effect1_backgroundBlur_6460_2" result="effect2_dropShadow_6460_2"/>
<feBlend mode="normal" in="SourceGraphic" in2="effect2_dropShadow_6460_2" result="shape"/>
</filter>
</defs>
</svg>
