<svg width="41" height="30" viewBox="0 0 41 30" fill="none" xmlns="http://www.w3.org/2000/svg">
<path d="M37.6503 29.9821H3.3318C2.87186 29.9821 2.49885 29.5973 2.49885 29.1229V27.2324H38.4833V29.1229C38.4833 29.5973 38.1103 29.9821 37.6503 29.9821Z" fill="#6DC54A"/>
<path d="M2.49885 27.2324H38.4833V28.6071H2.49885V27.2324Z" fill="#5DB33A"/>
<path d="M38.9829 27.2324H1.99921C1.53927 27.2324 1.16626 26.8476 1.16626 26.3731V24.4826H39.8159V26.3731C39.8159 26.8476 39.4432 27.2324 38.9829 27.2324Z" fill="#6DC54A"/>
<path d="M1.16626 24.4826H39.8159V25.8573H1.16626V24.4826Z" fill="#5DB33A"/>
<path d="M40.1492 24.4826H0.83295C0.373014 24.4826 0 24.0978 0 23.6233V1.10929C0 0.634808 0.373014 0.25 0.83295 0.25H40.1492C40.6091 0.25 40.9821 0.634808 40.9821 1.10929V23.6233C40.9821 24.0978 40.6091 24.4826 40.1492 24.4826Z" fill="#ABDE97"/>
<path d="M39.4829 0.25V21.9905C39.4829 22.465 39.1099 22.8498 38.6499 22.8498H0V23.6233C0 24.0978 0.373014 24.4826 0.83295 24.4826H40.1492C40.6091 24.4826 40.9821 24.0978 40.9821 23.6233V1.10929C40.9821 0.634808 40.6091 0.25 40.1492 0.25L39.4829 0.25Z" fill="#82CD64"/>
<path d="M6.51821 21.5609C6.14363 21.5609 5.82096 21.3012 5.71559 20.93C5.40261 19.8262 4.53651 18.8824 3.45499 18.5718C3.08979 18.4669 2.83216 18.1318 2.83216 17.7405V7.00172C2.83216 6.60465 3.0973 6.26533 3.47 6.16662C4.58373 5.87213 5.37447 4.97156 5.70402 3.79165C5.80751 3.42104 6.14426 3.1717 6.5179 3.1717H34.4642C34.8379 3.1717 35.1746 3.42104 35.2781 3.79165C35.6074 4.97156 36.3984 5.87213 37.5121 6.16662C37.8848 6.26533 38.15 6.60465 38.15 7.00172V17.7405C38.15 18.1318 37.8924 18.4669 37.5272 18.5721C36.4456 18.8824 35.5795 19.8265 35.2666 20.93C35.1612 21.3012 34.8385 21.5609 34.4636 21.5609H6.51821Z" fill="#6DC54A"/>
<path d="M35.2666 20.93C35.5811 19.821 36.4541 18.8734 37.5428 18.5672C37.9027 18.4663 38.15 18.1253 38.15 17.7405V7.00172C38.15 6.60465 37.8848 6.26533 37.5121 6.16662C36.3984 5.87213 35.6074 4.97156 35.2781 3.79165C35.1746 3.42104 34.8379 3.1717 34.4642 3.1717H33.7929V3.5707C33.7929 5.31572 34.7779 6.92398 36.3353 7.60457C36.3471 7.60974 36.359 7.6149 36.3709 7.62006C36.4388 7.64909 36.4841 7.7165 36.4841 7.7923V16.9403C36.4841 17.0164 36.4391 17.0835 36.3709 17.1125C35.2275 17.6009 34.3117 18.5456 33.838 19.7255C33.8098 19.7955 33.7445 19.8423 33.671 19.8423H5.19093C5.42481 20.1716 5.60553 20.5413 5.7159 20.9316C5.82096 21.3019 6.14394 21.5609 6.51821 21.5609H34.4636C34.8385 21.5609 35.1612 21.3012 35.2666 20.93Z" fill="#5DB33A"/>
<path d="M26.1554 11.7217H25.2386C24.9313 9.30089 22.9202 7.42523 20.4911 7.42523C18.0619 7.42523 16.0509 9.30089 15.7435 11.7217H14.8268C14.4819 11.7217 14.202 12.0104 14.202 12.3661C14.202 12.7222 14.4819 13.0106 14.8268 13.0106H15.7435C16.0509 15.4317 18.0619 17.3073 20.4911 17.3073C22.9202 17.3073 24.9313 15.4317 25.2386 13.0106H26.1554C26.5003 13.0106 26.7801 12.7222 26.7801 12.3661C26.7801 12.0104 26.5003 11.7217 26.1554 11.7217ZM20.4911 16.0184C18.5391 16.0184 16.951 14.3802 16.951 12.3661C16.951 10.3524 18.5391 8.71416 20.4911 8.71416C22.4431 8.71416 24.0311 10.3524 24.0311 12.3661C24.0311 14.3802 22.4431 16.0184 20.4911 16.0184Z" fill="#5DB33A"/>
<path d="M32.1527 11.7217H28.9872C28.6424 11.7217 28.3625 12.0104 28.3625 12.3661C28.3625 12.7222 28.6424 13.0106 28.9872 13.0106H32.1527C32.4976 13.0106 32.7774 12.7222 32.7774 12.3661C32.7774 12.0104 32.4979 11.7217 32.1527 11.7217Z" fill="#5DB33A"/>
<path d="M11.9949 11.7217H8.82946C8.48458 11.7217 8.20475 12.0104 8.20475 12.3661C8.20475 12.7222 8.48427 13.0106 8.82946 13.0106H11.9949C12.3398 13.0106 12.6196 12.7222 12.6196 12.3661C12.6196 12.0104 12.3398 11.7217 11.9949 11.7217Z" fill="#5DB33A"/>
</svg>
